<?xml version="1.0" encoding="utf-8"?>
<!-- Generator: Adobe Illustrator 16.0.0, SVG Export Plug-In . SVG Version: 6.00 Build 0)  -->
<!DOCTYPE svg PUBLIC "-//W3C//DTD SVG 1.1//EN" "http://www.w3.org/Graphics/SVG/1.1/DTD/svg11.dtd">
<svg version="1.1" id="final" xmlns="http://www.w3.org/2000/svg" xmlns:xlink="http://www.w3.org/1999/xlink" x="0px" y="0px"
	 width="612px" height="286.609px" viewBox="0 140.641 612 286.609" enable-background="new 0 140.641 612 286.609"
	 xml:space="preserve">
<title>logohorizontal_white</title>
<g id="Calque_2">
	<g id="Calque_6">
		<path fill="#FFFFFF" d="M33.407,387.073c0,6.698-2.347,12.356-7.04,16.979c-4.478,4.528-10.611,7.031-16.979,6.929
			c-3.865,0-6.995-0.424-9.388-1.271l2.152-14.137c1.45,0.341,2.932,0.525,4.421,0.556c1.067,0.069,2.138,0.05,3.203-0.056
			c2.33-0.129,4.54-1.078,6.237-2.681c1.667-1.538,2.592-3.721,2.54-5.988v-78.432h14.855L33.407,387.073L33.407,387.073z"/>
		<path fill="#FFFFFF" d="M46.88,409.711V308.994h43.24v15.182H62.067v27.609h20.485v15.186H62.067v27.544H90.12v15.196H46.88
			L46.88,409.711z"/>
		<path fill="#FFFFFF" d="M161.188,384.697c0.109,7.029-1.713,13.03-5.467,18.002c-2.471,3.389-5.951,5.764-10.439,7.124
			c-2.74,0.816-5.59,1.208-8.45,1.157c-5.96,0-10.893-1.473-14.799-4.416c-3.362-2.586-6.021-5.976-7.731-9.855
			c-1.914-4.143-3.018-8.92-3.31-14.332l14.412-0.994c0.663,5.854,2.219,10.088,4.668,12.703c1.802,1.988,3.882,2.922,6.242,2.801
			c3.314-0.111,5.96-1.731,7.936-4.859c1.03-1.584,1.545-3.812,1.545-6.682c0-4.229-1.896-8.406-5.686-12.533
			c-3.022-2.832-7.535-7.084-13.539-12.755c-5.042-4.86-8.595-9.219-10.658-13.071c-2.251-4.369-3.407-9.222-3.366-14.137
			c0-9.162,3.073-16.102,9.22-20.815c3.791-2.832,8.502-4.25,14.136-4.253c5.409,0,10.048,1.215,13.917,3.646
			c3.052,1.952,5.544,4.665,7.231,7.871c1.912,3.602,3.059,7.557,3.371,11.62l-14.58,2.651c-0.405-4.124-1.583-7.326-3.534-9.607
			c-1.4-1.689-3.406-2.536-6.018-2.54c-2.764,0-4.88,1.233-6.349,3.698c-1.183,1.988-1.772,4.455-1.77,7.399
			c0,4.603,1.989,9.298,5.966,14.084c2.054,2.327,4.308,4.472,6.737,6.404c3.532,2.944,5.867,5.005,7.002,6.183
			c3.365,3.303,6.28,7.035,8.669,11.102c0.88,1.529,1.66,3.115,2.334,4.747C160.344,378.604,161.113,381.824,161.188,384.697z"/>
		<path fill="#FFFFFF" d="M197.685,410.98c-6.663,0-12.323-2.334-16.979-7.004c-4.573-4.431-7.108-10.557-7.003-16.923v-78.061
			h14.851v77.911c-0.033,2.312,0.897,4.531,2.567,6.13c1.618,1.654,3.844,2.572,6.158,2.539c4.762,0.025,8.644-3.813,8.669-8.575
			c0-0.031,0-0.063,0-0.094v-77.911h15.85v78.079c0,6.737-2.356,12.407-7.068,17.008C210.22,408.598,204.067,411.088,197.685,410.98
			z"/>
		<path fill="#FFFFFF" d="M250.476,409.711H235.29V308.994h15.187L250.476,409.711L250.476,409.711z"/>
		<path fill="#FFFFFF" d="M313.369,384.697c0.111,7.029-1.711,13.03-5.467,18.002c-2.465,3.389-5.944,5.764-10.438,7.124
			c-2.739,0.816-5.587,1.208-8.445,1.157c-5.966,0-10.899-1.473-14.799-4.416c-3.363-2.584-6.022-5.975-7.731-9.855
			c-1.914-4.143-3.019-8.92-3.315-14.332l14.412-0.994c0.663,5.854,2.229,10.088,4.697,12.703c1.802,1.988,3.881,2.922,6.237,2.801
			c3.314-0.111,5.96-1.731,7.937-4.859c1.027-1.584,1.542-3.812,1.545-6.682c0-4.229-1.897-8.406-5.691-12.533
			c-3.016-2.832-7.528-7.084-13.538-12.755c-5.048-4.86-8.601-9.219-10.658-13.071c-2.253-4.369-3.41-9.221-3.371-14.137
			c0-9.162,3.073-16.102,9.22-20.815c3.791-2.832,8.503-4.25,14.136-4.253c5.416,0,10.055,1.215,13.917,3.646
			c3.052,1.953,5.545,4.666,7.236,7.871c1.907,3.603,3.054,7.558,3.365,11.62l-14.579,2.651c-0.401-4.124-1.58-7.326-3.534-9.607
			c-1.397-1.689-3.403-2.536-6.018-2.54c-2.757,0-4.874,1.233-6.349,3.698c-1.176,1.988-1.766,4.455-1.769,7.399
			c0,4.603,1.988,9.298,5.966,14.084c2.054,2.327,4.308,4.472,6.737,6.404c3.532,2.944,5.867,5.005,7.002,6.183
			c3.368,3.301,6.283,7.032,8.669,11.102c0.883,1.529,1.661,3.115,2.335,4.747C312.529,378.604,313.295,381.824,313.369,384.697z"/>
	</g>
	<g id="Calque_5" display="none">
		<path display="inline" d="M341.926,351.934h-4.636l-7.171-34.434v34.495h-4.201v-43.272h6.741l7.104,34.547l6.862-34.547h6.735
			v43.272h-4.569v-34.804L341.926,351.934z"/>
		<path display="inline" d="M363.186,343.278l-1.666,8.717h-4.453l8.285-43.272h7.004l8.281,43.272h-4.818l-1.702-8.717H363.186z
			 M363.807,339.138h9.646l-4.889-24.976L363.807,339.138z"/>
		<path display="inline" d="M408.377,319.171c0-6.615,3.268-10.882,9.889-10.882c6.618,0,9.952,4.267,9.952,10.882v22.381
			c0,6.535-3.269,10.882-9.952,10.882c-6.687,0-9.889-4.327-9.889-10.882V319.171z M413.134,341.794
			c0,3.959,1.671,6.247,5.136,6.247s5.136-2.288,5.136-6.247v-22.875c0-3.894-1.606-6.242-5.136-6.242
			c-3.528,0-5.136,2.335-5.136,6.242V341.794z"/>
		<path display="inline" d="M451.892,319.171v3.895h-4.574v-4.142c0-3.894-1.547-6.242-5.065-6.242c-3.521,0-5.07,2.334-5.07,6.242
			v22.875c0,3.898,1.606,6.246,5.07,6.246s5.065-2.334,5.065-6.246v-5.602h4.574v5.354c0,6.535-3.091,10.882-9.767,10.882
			s-9.706-4.327-9.706-10.882v-22.376c0-6.536,3.091-10.882,9.706-10.882S451.892,312.607,451.892,319.171z"/>
		<path display="inline" d="M461.163,343.278l-1.667,8.717h-4.454l8.287-43.272h7.002l8.282,43.272h-4.817l-1.672-8.717H461.163z
			 M461.783,339.138h9.641l-4.883-24.976L461.783,339.138z"/>
		<path display="inline" d="M487.189,308.723v43.272h-4.823v-43.272H487.189z"/>
		<path display="inline" d="M496.396,351.995h-4.327v-43.272h6.121l10.018,31.279v-31.279h4.263v43.272h-5.005l-11.067-34.99v34.99
			H496.396z"/>
		<path display="inline" d="M532.81,327.887v4.328h-10.573v15.405h12.981v4.389h-17.781v-43.271h17.806v4.388H522.26v14.776
			L532.81,327.887z"/>
		<path display="inline" d="M403.671,322.145v-3.523c0-6.434-2.843-9.897-9.646-9.897h-9.642V352h4.818v-18.486h3.396
			c0.543-0.007,1.086,0.029,1.623,0.107l4.44,18.379h4.952l-5.027-20.863l-0.052-0.187
			C402.079,329.727,403.671,326.79,403.671,322.145z M398.914,323.186c0,2.014-0.42,3.386-1.205,4.306
			c-0.98,1.162-2.539,1.582-4.564,1.625c-0.123,0-0.229,0-0.352,0h-3.585v-16.015h4.696c3.586,0,5.01,2.04,5.01,5.938V323.186
			L398.914,323.186z"/>
		<path display="inline" d="M330.357,409.958h-4.444v-44.411h6.284l10.27,32.105v-32.105h4.381v44.411h-5.137l-11.354-35.909
			V409.958z"/>
		<path display="inline" d="M356.622,399.491c0,3.996,1.587,6.41,5.2,6.41s5.136-2.414,5.136-6.41v-33.944h4.632v33.692
			c0,6.723-3.109,11.204-9.959,11.204c-6.848,0-9.896-4.505-9.896-11.204v-33.692h4.884L356.622,399.491z"/>
		<path display="inline" d="M392.85,409.897h-4.758l-7.361-35.341v35.4h-4.313v-44.411h6.914l7.297,35.48l7.045-35.48h6.914v44.411
			h-4.668V374.23L392.85,409.897z"/>
		<path display="inline" d="M425.468,385.216v4.421h-10.85v15.798h13.324v4.506H409.67v-44.394h18.272v4.506h-13.324v15.163H425.468
			z"/>
		<path display="inline" d="M462.446,365.547v44.411h-4.948v-44.411H462.446z"/>
		<path display="inline" d="M497.086,399.491c0,3.996,1.588,6.41,5.206,6.41c3.617,0,5.135-2.414,5.135-6.41v-33.944h4.637v33.692
			c0,6.723-3.109,11.204-9.963,11.204s-9.896-4.505-9.896-11.204v-33.692h4.883L497.086,399.491L497.086,399.491z"/>
		<path display="inline" d="M532.744,385.216v4.421h-10.851v15.798h13.323v4.506h-18.249v-44.394h18.272v4.506h-13.323v15.163
			H532.744z"/>
		<path display="inline" d="M452.293,379.319v-3.618c0-6.603-2.918-10.158-9.897-10.158h-9.893v44.42h4.944v-18.978h3.486
			c0.559-0.005,1.114,0.031,1.666,0.111l4.558,18.865h5.084l-5.135-21.414l-0.053-0.19
			C450.678,387.102,452.293,384.09,452.293,379.319z M447.409,380.389c0,2.067-0.43,3.474-1.232,4.421
			c-1.008,1.19-2.608,1.624-4.668,1.666c-0.126,0-0.238,0-0.358,0h-3.685V370.03h4.81c3.684,0,5.135,2.096,5.135,6.097
			L447.409,380.389L447.409,380.389z"/>
		<path display="inline" d="M467.139,376.266c0-6.787,3.365-11.162,10.153-11.162s10.215,4.375,10.215,11.162v22.97
			c0,6.728-3.361,11.167-10.215,11.167s-10.153-4.439-10.153-11.167V376.266L467.139,376.266z M472.026,399.491
			c0,4.062,1.713,6.405,5.266,6.405s5.266-2.335,5.266-6.405v-23.479c0-3.996-1.646-6.409-5.266-6.409s-5.266,2.413-5.266,6.409
			V399.491z"/>
	</g>
	<g id="Calque_4" display="none">
		<rect x="475.453" y="407.75" display="inline" width="3.683" height="13.936"/>
		<rect x="472.026" y="414.318" display="inline" width="10.531" height="3.684"/>
	</g>
	<g id="Calque_3">
		<path fill="#FFFFFF" d="M562.72,395.705l-7.002-0.047l0.032-4.122c0.104-2.255,0.829-4.438,2.096-6.308
			c4.491-6.396,13.002-6.782,20.515-7.129c4.668-0.215,9.069-0.415,11.525-2.155c3.227-2.288,3.132-7.167,3.066-10.738
			c-0.046-2.39,0-3.524,0.248-4.411l0.031-0.107c0.495-1.446,1.687-2.307,2.84-3.137c1.688-1.205,2.87-2.176,3.17-4.011
			c0.104-0.619-0.015-1.256-0.332-1.797l-1.224-2.167l1.645-1.867c1.133-1.311,1.268-3.211,0.331-4.668
			c-0.524-0.842-0.972-1.729-1.335-2.652c-1.37-3.413-0.271-7.32,2.68-9.519c2.007-1.508,3.31-3.118,3.87-4.785
			c0.252-0.747,0.116-2.096-0.406-4.122c-2.352-8.805-3.604-17.866-3.734-26.979c-0.032-4.781,0.116-8.212,0.435-10.21
			c0.658-4.08,1.399-11.204,1.825-16.125v-0.201c0.063-14.626-3.999-28.974-11.723-41.395l5.967-3.692
			c8.433,13.565,12.858,29.237,12.771,45.209l-0.027,0.607c-0.41,4.916-1.177,12.245-1.896,16.708
			c-0.146,0.934-0.383,3.296-0.351,9.052c0.118,8.532,1.291,17.016,3.486,25.261c0.935,3.534,0.995,5.962,0.268,8.128
			c-1.019,3.028-3.143,5.773-6.309,8.154c-0.406,0.278-0.568,0.802-0.392,1.262c0.205,0.528,0.455,1.04,0.747,1.525
			c2.146,3.381,2.279,7.663,0.35,11.172c0.388,1.366,0.471,2.801,0.243,4.201c-0.784,4.86-4.15,7.27-5.957,8.559l-0.257,0.187
			c0,0.593,0,1.303,0,1.652c0.089,4.562,0.229,12.166-6.022,16.602c-4.136,2.933-9.771,3.188-15.214,3.44
			c-6.231,0.285-12.604,0.579-15.148,4.16c-0.501,0.79-0.784,1.697-0.822,2.633L562.72,395.705z"/>
		<path fill="#FFFFFF" d="M558.821,410.467c-5.29-0.033-9.553-4.35-9.519-9.641c0.033-5.29,4.351-9.552,9.641-9.519
			c5.291,0.033,9.552,4.35,9.519,9.641C568.424,406.236,564.11,410.495,558.821,410.467z M558.906,396.929
			c-2.192-0.013-3.979,1.753-3.992,3.944s1.754,3.979,3.945,3.992c2.188,0.013,3.976-1.751,3.99-3.94
			c0.02-2.193-1.745-3.987-3.938-4.006c-0.002,0-0.004,0-0.006,0L558.906,396.929z"/>
		<path fill="#FFFFFF" d="M592.393,201.064c-0.904-0.004-1.807-0.119-2.685-0.341c-6.093-1.512-9.807-7.678-8.294-13.771
			c1.513-6.093,7.679-9.807,13.771-8.294c6.094,1.512,9.807,7.677,8.295,13.77l0,0C602.217,197.518,597.638,201.085,592.393,201.064
			z M592.481,183.936c-3.181-0.022-5.773,2.538-5.797,5.717c-0.021,3.179,2.538,5.773,5.718,5.795
			c1.061,0.007,2.103-0.279,3.011-0.826c1.313-0.782,2.257-2.059,2.619-3.543l0,0c0.761-3.085-1.118-6.205-4.202-6.975
			C593.39,183.993,592.937,183.937,592.481,183.936z"/>
		<path fill="#FFFFFF" d="M558.519,332.294c-4.623-0.03-8.346-3.803-8.314-8.426c0.03-4.622,3.803-8.346,8.426-8.314
			c4.622,0.03,8.346,3.804,8.314,8.425c-0.004,0.661-0.087,1.32-0.246,1.963l0,0C565.755,329.688,562.381,332.308,558.519,332.294z
			 M558.584,321.164c-0.505-0.001-1.001,0.136-1.434,0.396c-0.63,0.375-1.079,0.987-1.251,1.699
			c-0.365,1.478,0.535,2.971,2.013,3.335c1.477,0.365,2.97-0.536,3.335-2.013c0.365-1.476-0.535-2.968-2.01-3.335
			c-0.211-0.053-0.428-0.081-0.646-0.084L558.584,321.164L558.584,321.164z"/>
		<path fill="#FFFFFF" d="M540.251,309.339c-0.604-0.7-14.939-17.404-25.751-40.937c-14.473-31.531-15.299-60.055-2.377-82.487
			l0.854-1.475l1.699,0.07c16.013,0.691,56.857,12.423,72.884,28.744l-4.005,3.931c-14.006-14.267-50.835-25.583-67.413-26.956
			c-11.255,20.817-10.093,46.316,3.455,75.834c6.609,14.191,14.975,27.498,24.896,39.607L540.251,309.339z"/>
		<path fill="#FFFFFF" d="M486.517,279.092l-5.256-1.965c13.417-36.083,40.941-58.127,61.665-70.27
			c22.408-13.113,41.367-17.679,42.165-17.871l1.289,5.462c-0.188,0.047-19.085,4.613-40.77,17.343
			C525.728,223.473,499.337,244.625,486.517,279.092z"/>
		<path fill="#FFFFFF" d="M508.239,284.242c-0.515,0-1.014,0-1.503-0.028l0.177-5.603c20.514,0.677,63.557-10.803,85.312-22.716
			l2.708,4.893C572.594,273.033,530.363,284.386,508.239,284.242z"/>
		<path fill="#FFFFFF" d="M562.953,321.916l-4.379-3.511c9.505-11.857,17.059-26.386,22.45-43.178l5.346,1.718
			C580.764,294.4,572.888,309.521,562.953,321.916z"/>
		<path fill="#FFFFFF" d="M502.282,287.584c-0.533-0.005-1.064-0.072-1.582-0.201c-3.604-0.901-5.796-4.554-4.896-8.158
			s4.555-5.796,8.158-4.895c3.604,0.901,5.795,4.554,4.895,8.158C508.104,285.501,505.388,287.607,502.282,287.584z
			 M502.329,279.718c-0.621-0.001-1.127,0.501-1.128,1.122c-0.002,0.622,0.5,1.126,1.121,1.128c0.622,0.001,1.127-0.5,1.129-1.122
			c0.001-0.519-0.354-0.971-0.856-1.096C502.508,279.729,502.419,279.717,502.329,279.718L502.329,279.718z"/>
	</g>
</g>
<g id="Calque_4_1_">
	<rect x="398.32" y="395.51" fill="#D00425" width="3.861" height="15.332"/>
	<rect x="394.729" y="402.636" fill="#D00425" width="11.041" height="4.053"/>
</g>
<text transform="matrix(0.6409 0 0 1 326.3936 353.3857)" fill="#D00425" font-family="'MS-Gothic'" font-size="53.9019">MAROCAINE</text>
<text transform="matrix(0.8138 0 0 1 330.1807 400.8525)" fill="#D00425" font-family="'MS-Gothic'" font-size="52.0819">DIGITALE</text>
</svg>
