<?xml version="1.0" encoding="utf-8"?>
<!-- Generator: Adobe Illustrator 16.0.0, SVG Export Plug-In . SVG Version: 6.00 Build 0)  -->
<!DOCTYPE svg PUBLIC "-//W3C//DTD SVG 1.1//EN" "http://www.w3.org/Graphics/SVG/1.1/DTD/svg11.dtd">
<svg version="1.1" id="final" xmlns="http://www.w3.org/2000/svg" xmlns:xlink="http://www.w3.org/1999/xlink" x="0px" y="0px"
	 width="611.985px" height="232.664px" viewBox="8.013 178.32 611.985 232.664"
	 enable-background="new 8.013 178.32 611.985 232.664" xml:space="preserve">
<title>logohorizontal</title>
<g id="Calque_2">
	<g id="Calque_6">
		<path d="M41.42,387.073c0,6.698-2.347,12.356-7.04,16.979c-4.478,4.528-10.611,7.031-16.979,6.929
			c-3.865,0-6.995-0.424-9.388-1.271l2.152-14.137c1.45,0.341,2.932,0.525,4.421,0.556c1.067,0.069,2.138,0.05,3.203-0.056
			c2.33-0.129,4.54-1.078,6.237-2.681c1.667-1.538,2.592-3.721,2.54-5.988v-78.432H41.42V387.073z"/>
		<path d="M54.893,409.711V308.994h43.239v15.182H70.08v27.609h20.485v15.186H70.08v27.544h28.053v15.196H54.893L54.893,409.711z"/>
		<path d="M169.2,384.697c0.109,7.029-1.713,13.03-5.467,18.002c-2.471,3.389-5.951,5.764-10.439,7.124
			c-2.74,0.816-5.59,1.208-8.45,1.157c-5.96,0-10.893-1.473-14.799-4.416c-3.362-2.586-6.021-5.976-7.731-9.855
			c-1.914-4.143-3.018-8.92-3.31-14.332l14.412-0.994c0.663,5.854,2.219,10.088,4.668,12.703c1.802,1.988,3.882,2.922,6.242,2.801
			c3.314-0.111,5.96-1.731,7.936-4.859c1.03-1.584,1.545-3.812,1.545-6.682c0-4.229-1.896-8.406-5.686-12.533
			c-3.022-2.832-7.535-7.084-13.539-12.755c-5.042-4.86-8.595-9.219-10.658-13.071c-2.251-4.369-3.407-9.222-3.366-14.137
			c0-9.162,3.073-16.102,9.22-20.815c3.791-2.832,8.502-4.25,14.136-4.253c5.409,0,10.048,1.215,13.917,3.646
			c3.052,1.952,5.544,4.665,7.231,7.871c1.912,3.602,3.059,7.557,3.371,11.62l-14.58,2.651c-0.405-4.124-1.583-7.326-3.534-9.607
			c-1.4-1.689-3.406-2.536-6.018-2.54c-2.764,0-4.88,1.233-6.349,3.698c-1.183,1.988-1.772,4.455-1.77,7.399
			c0,4.603,1.989,9.298,5.966,14.084c2.054,2.327,4.308,4.472,6.737,6.404c3.532,2.944,5.867,5.005,7.002,6.183
			c3.365,3.303,6.28,7.035,8.669,11.102c0.88,1.529,1.66,3.115,2.334,4.747C168.356,378.604,169.125,381.824,169.2,384.697z"/>
		<path d="M205.698,410.98c-6.663,0-12.323-2.334-16.979-7.004c-4.573-4.431-7.108-10.557-7.003-16.923v-78.061h14.851v77.911
			c-0.033,2.312,0.897,4.531,2.567,6.13c1.618,1.654,3.844,2.572,6.158,2.539c4.762,0.025,8.644-3.813,8.669-8.575
			c0-0.031,0-0.063,0-0.094v-77.911h15.85v78.079c0,6.737-2.356,12.407-7.068,17.008C218.232,408.598,212.08,411.088,205.698,410.98
			z"/>
		<path d="M258.489,409.711h-15.187V308.994h15.187V409.711z"/>
		<path d="M321.382,384.697c0.111,7.029-1.711,13.03-5.467,18.002c-2.465,3.389-5.944,5.764-10.438,7.124
			c-2.739,0.816-5.587,1.208-8.445,1.157c-5.966,0-10.899-1.473-14.799-4.416c-3.363-2.584-6.022-5.975-7.731-9.855
			c-1.914-4.143-3.019-8.92-3.315-14.332l14.412-0.994c0.663,5.854,2.229,10.088,4.697,12.703c1.802,1.988,3.881,2.922,6.237,2.801
			c3.314-0.111,5.96-1.731,7.937-4.859c1.027-1.584,1.542-3.812,1.545-6.682c0-4.229-1.897-8.406-5.691-12.533
			c-3.016-2.832-7.528-7.084-13.538-12.755c-5.048-4.86-8.601-9.219-10.658-13.071c-2.253-4.369-3.41-9.221-3.371-14.137
			c0-9.162,3.073-16.102,9.22-20.815c3.791-2.832,8.503-4.25,14.136-4.253c5.416,0,10.055,1.215,13.917,3.646
			c3.054,1.953,5.547,4.666,7.236,7.871c1.907,3.603,3.053,7.558,3.365,11.62l-14.579,2.651c-0.401-4.124-1.58-7.326-3.534-9.607
			c-1.397-1.689-3.403-2.536-6.018-2.54c-2.757,0-4.874,1.233-6.349,3.698c-1.176,1.988-1.766,4.455-1.769,7.399
			c0,4.603,1.988,9.298,5.966,14.084c2.054,2.327,4.308,4.472,6.737,6.404c3.532,2.944,5.867,5.005,7.002,6.183
			c3.368,3.301,6.283,7.032,8.669,11.102c0.883,1.529,1.662,3.115,2.335,4.747C320.543,378.604,321.309,381.824,321.382,384.697z"/>
	</g>
	<g id="Calque_5" display="none">
		<path display="inline" d="M349.938,351.934h-4.636l-7.171-34.434v34.495h-4.201v-43.272h6.741l7.104,34.547l6.863-34.547h6.735
			v43.272h-4.569v-34.804L349.938,351.934z"/>
		<path display="inline" d="M371.198,343.278l-1.666,8.717h-4.453l8.285-43.272h7.004l8.28,43.272h-4.817l-1.703-8.717H371.198z
			 M371.818,339.138h9.646l-4.888-24.976L371.818,339.138z"/>
		<path display="inline" d="M416.391,319.171c0-6.615,3.268-10.882,9.887-10.882c6.62,0,9.954,4.267,9.954,10.882v22.381
			c0,6.535-3.27,10.882-9.954,10.882c-6.686,0-9.887-4.327-9.887-10.882V319.171z M421.146,341.794c0,3.959,1.67,6.247,5.136,6.247
			c3.464,0,5.135-2.288,5.135-6.247v-22.875c0-3.894-1.606-6.242-5.135-6.242c-3.529,0-5.136,2.335-5.136,6.242V341.794z"/>
		<path display="inline" d="M459.904,319.171v3.895h-4.575v-4.142c0-3.894-1.546-6.242-5.065-6.242
			c-3.521,0-5.069,2.334-5.069,6.242v22.875c0,3.898,1.605,6.246,5.069,6.246s5.065-2.334,5.065-6.246v-5.602h4.575v5.354
			c0,6.535-3.091,10.882-9.768,10.882c-6.676,0-9.706-4.327-9.706-10.882v-22.376c0-6.536,3.092-10.882,9.706-10.882
			C456.752,308.293,459.904,312.607,459.904,319.171z"/>
		<path display="inline" d="M469.176,343.278l-1.667,8.717h-4.454l8.287-43.272h7.002l8.282,43.272h-4.817l-1.672-8.717H469.176z
			 M469.796,339.138h9.641l-4.883-24.976L469.796,339.138z"/>
		<path display="inline" d="M495.202,308.723v43.272h-4.823v-43.272H495.202z"/>
		<path display="inline" d="M504.408,351.995h-4.328v-43.272h6.121l10.018,31.279v-31.279h4.264v43.272h-5.006l-11.067-34.99
			L504.408,351.995L504.408,351.995z"/>
		<path display="inline" d="M540.822,327.887v4.328h-10.574v15.405h12.982v4.389h-17.781v-43.271h17.805v4.388h-12.981v14.776
			L540.822,327.887z"/>
		<path display="inline" d="M411.684,322.145v-3.523c0-6.434-2.843-9.897-9.646-9.897h-9.642V352h4.818v-18.486h3.395
			c0.543-0.007,1.086,0.029,1.625,0.107L406.674,352h4.953l-5.027-20.863l-0.053-0.187
			C410.092,329.727,411.684,326.79,411.684,322.145z M406.927,323.186c0,2.014-0.42,3.386-1.204,4.306
			c-0.98,1.162-2.539,1.582-4.565,1.625c-0.122,0-0.229,0-0.351,0h-3.586v-16.015h4.696c3.586,0,5.011,2.04,5.011,5.938
			L406.927,323.186L406.927,323.186z"/>
		<path display="inline" d="M338.37,409.958h-4.444v-44.411h6.284l10.271,32.105v-32.105h4.379v44.411h-5.135l-11.354-35.909
			V409.958z"/>
		<path display="inline" d="M364.635,399.491c0,3.996,1.588,6.41,5.2,6.41c3.614,0,5.136-2.414,5.136-6.41v-33.944h4.633v33.692
			c0,6.723-3.109,11.204-9.959,11.204c-6.849,0-9.896-4.505-9.896-11.204v-33.692h4.883L364.635,399.491z"/>
		<path display="inline" d="M400.861,409.897h-4.758l-7.36-35.341v35.4h-4.313v-44.411h6.913l7.298,35.48l7.045-35.48h6.914v44.411
			h-4.668V374.23L400.861,409.897z"/>
		<path display="inline" d="M433.48,385.216v4.421H422.63v15.798h13.324v4.506h-18.272v-44.394h18.272v4.506H422.63v15.163H433.48z"
			/>
		<path display="inline" d="M470.459,365.547v44.411h-4.948v-44.411H470.459z"/>
		<path display="inline" d="M505.099,399.491c0,3.996,1.588,6.41,5.206,6.41c3.617,0,5.136-2.414,5.136-6.41v-33.944h4.636v33.692
			c0,6.723-3.109,11.204-9.962,11.204c-6.854,0-9.897-4.505-9.897-11.204v-33.692h4.883L505.099,399.491L505.099,399.491z"/>
		<path display="inline" d="M540.757,385.216v4.421h-10.85v15.798h13.323v4.506h-18.249v-44.394h18.271v4.506H529.93v15.163H540.757
			z"/>
		<path display="inline" d="M460.306,379.319v-3.618c0-6.603-2.918-10.158-9.896-10.158h-9.894v44.42h4.944v-18.978h3.487
			c0.558-0.005,1.113,0.031,1.666,0.111l4.557,18.865h5.084l-5.135-21.414l-0.052-0.19
			C458.69,387.102,460.306,384.09,460.306,379.319z M455.422,380.389c0,2.067-0.43,3.474-1.231,4.421
			c-1.009,1.19-2.609,1.624-4.668,1.666c-0.127,0-0.238,0-0.359,0h-3.684V370.03h4.809c3.684,0,5.135,2.096,5.135,6.097
			L455.422,380.389L455.422,380.389z"/>
		<path display="inline" d="M475.151,376.266c0-6.787,3.364-11.162,10.152-11.162s10.215,4.375,10.215,11.162v22.97
			c0,6.728-3.36,11.167-10.215,11.167c-6.854,0-10.152-4.439-10.152-11.167V376.266z M480.039,399.491
			c0,4.062,1.713,6.405,5.266,6.405c3.554,0,5.267-2.335,5.267-6.405v-23.479c0-3.996-1.647-6.409-5.267-6.409
			s-5.266,2.413-5.266,6.409V399.491z"/>
	</g>
	<g id="Calque_4">
		<rect x="394.33" y="386.92" fill="#D00425" width="3.151" height="13.937"/>
		<rect x="391.399" y="392.488" fill="#D00425" width="9.009" height="3.684"/>
	</g>
	<g id="Calque_3">
		<path d="M570.732,395.705l-7.003-0.047l0.032-4.122c0.104-2.255,0.829-4.438,2.097-6.308c4.49-6.396,13.002-6.782,20.514-7.129
			c4.668-0.215,9.07-0.415,11.525-2.155c3.227-2.288,3.133-7.167,3.066-10.738c-0.046-2.39,0-3.524,0.248-4.411l0.032-0.107
			c0.495-1.446,1.686-2.307,2.839-3.137c1.688-1.205,2.871-2.176,3.17-4.011c0.104-0.619-0.014-1.256-0.332-1.797l-1.223-2.167
			l1.644-1.867c1.133-1.311,1.269-3.211,0.331-4.668c-0.524-0.842-0.971-1.729-1.335-2.652c-1.37-3.413-0.271-7.32,2.68-9.519
			c2.007-1.508,3.311-3.118,3.87-4.785c0.252-0.747,0.116-2.096-0.406-4.122c-2.352-8.805-3.604-17.866-3.733-26.979
			c-0.033-4.781,0.116-8.213,0.434-10.211c0.658-4.08,1.4-11.203,1.825-16.125v-0.201c0.063-14.625-3.999-28.973-11.722-41.395
			l5.966-3.691c8.433,13.564,12.859,29.236,12.771,45.209l-0.026,0.606c-0.411,4.916-1.177,12.245-1.896,16.708
			c-0.145,0.934-0.383,3.297-0.351,9.053c0.119,8.531,1.291,17.016,3.486,25.261c0.935,3.534,0.995,5.962,0.268,8.128
			c-1.018,3.028-3.143,5.773-6.308,8.154c-0.406,0.278-0.569,0.802-0.393,1.262c0.205,0.528,0.455,1.04,0.747,1.525
			c2.146,3.381,2.28,7.663,0.35,11.172c0.389,1.366,0.472,2.801,0.243,4.201c-0.784,4.86-4.149,7.27-5.957,8.559l-0.257,0.187
			c0,0.593,0,1.303,0,1.652c0.089,4.562,0.229,12.166-6.021,16.602c-4.137,2.933-9.771,3.188-15.215,3.44
			c-6.231,0.285-12.604,0.579-15.148,4.16c-0.501,0.79-0.784,1.697-0.822,2.633L570.732,395.705z"/>
		<path d="M566.834,410.467c-5.29-0.033-9.552-4.35-9.518-9.641c0.032-5.29,4.35-9.552,9.64-9.519
			c5.291,0.033,9.552,4.35,9.519,9.641C576.437,406.236,572.123,410.495,566.834,410.467z M566.919,396.929
			c-2.192-0.013-3.979,1.753-3.992,3.944c-0.013,2.191,1.754,3.979,3.945,3.992c2.189,0.013,3.976-1.751,3.991-3.94
			c0.019-2.193-1.746-3.987-3.939-4.006c-0.002,0-0.004,0-0.006,0L566.919,396.929z"/>
		<path d="M600.405,201.064c-0.905-0.004-1.808-0.119-2.686-0.342c-6.093-1.512-9.807-7.678-8.294-13.771
			c1.514-6.093,7.68-9.808,13.771-8.294c6.093,1.512,9.806,7.677,8.295,13.77l0,0C610.229,197.518,605.65,201.085,600.405,201.064z
			 M600.494,183.936c-3.18-0.021-5.773,2.539-5.796,5.717c-0.021,3.18,2.538,5.773,5.717,5.796c1.061,0.007,2.103-0.279,3.011-0.826
			c1.313-0.782,2.257-2.06,2.619-3.543l0,0c0.761-3.085-1.118-6.205-4.202-6.976C601.402,183.993,600.949,183.938,600.494,183.936z"
			/>
		<path d="M566.531,332.294c-4.623-0.03-8.347-3.803-8.315-8.426c0.03-4.622,3.803-8.346,8.426-8.314
			c4.622,0.03,8.347,3.804,8.314,8.425c-0.004,0.661-0.087,1.32-0.246,1.963l0,0C573.768,329.688,570.394,332.308,566.531,332.294z
			 M566.597,321.164c-0.505-0.001-1.001,0.136-1.434,0.396c-0.629,0.375-1.079,0.987-1.251,1.699
			c-0.365,1.478,0.536,2.971,2.013,3.335c1.478,0.365,2.97-0.536,3.335-2.013c0.365-1.476-0.535-2.968-2.01-3.335
			c-0.211-0.053-0.427-0.081-0.646-0.084L566.597,321.164L566.597,321.164z"/>
		<path d="M548.264,309.339c-0.603-0.7-14.938-17.403-25.751-40.937c-14.473-31.531-15.299-60.055-2.377-82.487l0.854-1.476
			l1.698,0.07c16.014,0.691,56.857,12.424,72.885,28.744l-4.005,3.932c-14.007-14.268-50.835-25.584-67.413-26.957
			c-11.255,20.817-10.094,46.316,3.455,75.834c6.608,14.191,14.974,27.498,24.896,39.607L548.264,309.339z"/>
		<path d="M494.529,279.092l-5.256-1.965c13.417-36.083,40.94-58.127,61.665-70.27c22.407-13.113,41.366-17.68,42.164-17.871
			l1.289,5.462c-0.188,0.047-19.085,4.612-40.77,17.343C533.74,223.473,507.35,244.625,494.529,279.092z"/>
		<path d="M516.252,284.242c-0.514,0-1.013,0-1.503-0.028l0.177-5.603c20.515,0.677,63.558-10.803,85.313-22.717l2.708,4.894
			C580.606,273.033,538.376,284.386,516.252,284.242z"/>
		<path d="M570.966,321.916l-4.379-3.511c9.505-11.857,17.059-26.386,22.45-43.179l5.346,1.719
			C588.776,294.4,580.9,309.521,570.966,321.916z"/>
		<path d="M510.295,287.584c-0.533-0.005-1.063-0.072-1.582-0.201c-3.604-0.9-5.796-4.554-4.895-8.158
			c0.899-3.604,4.554-5.795,8.157-4.895c3.604,0.9,5.796,4.554,4.895,8.158C516.117,285.501,513.4,287.607,510.295,287.584z
			 M510.342,279.718c-0.621-0.001-1.127,0.501-1.128,1.122c-0.002,0.622,0.5,1.126,1.121,1.128c0.622,0.001,1.127-0.5,1.129-1.122
			c0.001-0.519-0.353-0.971-0.855-1.096C510.521,279.729,510.432,279.717,510.342,279.718L510.342,279.718z"/>
	</g>
</g>
<text transform="matrix(0.5922 0 0 1 332.9375 348.166)" fill="#D00425" font-family="'MS-Gothic'" font-size="48.9919">MAROCAINE</text>
<text transform="matrix(0.8102 0 0 1 332.9365 391.3086)" fill="#D00425" font-family="'MS-Gothic'" font-size="47.3377">DIGITALE</text>
</svg>
